<?xml version="1.0" standalone="yes"?>
<svg width="240" height="85">
<path style="fill:#d73337; stroke:none;" d="M0 0C2.51195 6.04148 5.16725 19.1355 10.6381 22.9722C13.7501 25.1546 19.3514 23.8734 23 24.7492C33.3863 27.2423 41.6058 32.549 46.956 42C53.1207 52.8897 49.9167 79.4397 65 81C57.6561 66.9837 61.1948 54.7496 58.5355 40C55.1019 20.9561 37.832 9.12733 20 5L18 14L17 14L16 4L0 0z"/>
<path style="fill:#27090a; stroke:none;" d="M2 0L2 1L16 4L2 0z"/>
<path style="fill:#ffffff; stroke:none;" d="M8 0L8 1L16 5C26.661 4.19983 37.9837 10.8128 45.9105 17.5177C50.4021 21.3171 53.6446 28.3591 60.0394 28.9414C79.6747 30.7291 100.276 29 120 29L240 29L240 0L8 0z"/>
<path style="fill:#130404; stroke:none;" d="M0 1L3 10L4 10L0 1z"/>
<path style="fill:#ffffff; stroke:none;" d="M0 4L0 85L63 85L63 84C54.2335 77.5246 56.3242 68.0095 44 68L50 75C42.2932 76.4308 36.4953 76.1643 31 70C20.9211 73.8981 14.972 83.848 3 80C6.43857 71.7277 9.67523 64.0506 7 55C13.117 54.5132 19.5478 53.8231 21 47C16.959 48.5589 10.6255 52.2241 6.22839 50.3819C-4.58294 45.8527 10.069 31.3479 15 29L15 28C6.21426 23.5369 5.95183 11.1832 0 4z"/>
<path style="fill:#4c1214; stroke:none;" d="M19 6L22 5L19 6z"/>
<path style="fill:#030404; stroke:none;" d="M16 5L17 14L18 14L19 5L16 5z"/>
<path style="fill:#3e0f10; stroke:none;" d="M22.6667 5.33334L23.3333 5.66666L22.6667 5.33334z"/>
<path style="fill:#1c0607; stroke:none;" d="M25.6667 6.33334L26.3333 6.66666L25.6667 6.33334z"/>
<path style="fill:#7d2224; stroke:none;" d="M16 7L16 12L17 12L16 7z"/>
<path style="fill:#320c0d; stroke:none;" d="M28 7L29 8L28 7z"/>
<path style="fill:#100303; stroke:none;" d="M30 8L30 9L36 11L36 10L30 8z"/>
<path style="fill:#2c0a0b; stroke:none;" d="M4.33333 10.6667L4.66667 11.3333L4.33333 10.6667z"/>
<path style="fill:#130404; stroke:none;" d="M36.6667 11.3333L37.3333 11.6667L36.6667 11.3333z"/>
<path style="fill:#1e0707; stroke:none;" d="M40 13L41 14L40 13z"/>
<path style="fill:#0a0202; stroke:none;" d="M6.33333 15.6667L6.66667 16.3333L6.33333 15.6667z"/>
<path style="fill:#0d0203; stroke:none;" d="M43 15L44 16L43 15z"/>
<path style="fill:#2c0a0b; stroke:none;" d="M44 16L45 17L44 16z"/>
<path style="fill:#040000; stroke:none;" d="M45 17L49 20L45 17z"/>
<path style="fill:#210708; stroke:none;" d="M7 18L8 19L7 18z"/>
<path style="fill:#140404; stroke:none;" d="M8 20L9 24L10 24L8 20z"/>
<path style="fill:#741d20; stroke:none;" d="M51 23L53 26L51 23z"/>
<path style="fill:#090a0a; stroke:none;" d="M11 24L16 29L34 29C27.5688 23.8607 18.8326 24 11 24z"/>
<path style="fill:#100606; stroke:none;" d="M53 25L56 29L53 25z"/>
<path style="fill:#ffffff; stroke:none;" d="M16 27L16 28L19 28L16 27z"/>
<path style="fill:#a2813a; stroke:none;" d="M22 44C21.5418 52.3621 12.2672 51.8567 11.5278 58.1049C10.0962 70.2026 22.3351 68.2086 29 69.4784C36.593 70.925 39.5426 74.5701 48 73L42 69C40.8425 66.1833 38.521 63.1716 38.865 60C39.6919 52.3764 45.6439 47.1882 41.5432 39C35.7559 27.4439 18.0129 23.706 8.75849 33.0185C6.13417 35.6593 -0.0245776 45.866 6.3179 48.3032C10.7207 49.9951 17.7902 45.2035 22 44z"/>
<path style="fill:#989b9d; stroke:none;" d="M32 29L32 30L37 30L32 29z"/>
<path style="fill:#a3a4a4; stroke:none;" d="M55 31C73.7074 26.5462 96.7774 30 116 30L240 30C228.782 25.2928 209.206 29 197 29L98 29L67 29C63.1096 29 57.7193 27.8881 55 31z"/>
<path style="fill:#e6e7e8; stroke:none;" d="M33 30L33 31C37.9281 34.4814 43.2147 39.6281 43.8526 46C44.5972 53.4372 34.0302 66.7455 46.9961 66.9954C48.9958 67.0339 50.9999 67 53 67C52.4558 54.5175 48.7631 31.1883 33 30M56 30C59.9948 37.8188 60.9994 45.2868 61 54C61.0002 57.1509 59.7836 63.7389 62.6034 65.9722C65.3847 68.1751 71.6719 67 75 67L109 67L239 67L239 30L56 30z"/>
<path style="fill:#c5c6c7; stroke:none;" d="M239 30L239 67L240 67C240 56.3512 243.111 39.7979 239 30z"/>
<path style="fill:#c5c7c7; stroke:none;" d="M56 31C57.9819 39.6451 58.9966 47.0916 59 56C59.0016 60.1478 58.3432 64.4164 62 67C59.3643 55.9294 64.6332 39.9342 56 31z"/>
<path style="fill:#4d3e20; stroke:none;" d="M6 36L10 32L6 36z"/>
<path style="fill:#9c7c39; stroke:none;" d="M145 37C145 42.3006 143.561 50.4496 147.514 54.6821C153.13 60.6954 162.206 56.0625 163 49L157 49C156.432 52.5824 155.492 53.9434 152 55L152 42L163 42L163 40L152 40L152 37L145 37z"/>
<path style="fill:#e06063; stroke:none;" d="M209 37L209 38L214 38L209 37z"/>
<path style="fill:#e03337; stroke:none;" d="M208 38C209.396 42.2012 212.604 42.2012 214 38L208 38z"/>
<path style="fill:#e2888a; stroke:none;" d="M214 38L214 41L215 41L214 38z"/>
<path style="fill:#b7ad99; stroke:none;" d="M69 39L69 40L75 40L69 39z"/>
<path style="fill:#bfb299; stroke:none;" d="M84 39L84 40L91 40L84 39z"/>
<path style="fill:#c4b89c; stroke:none;" d="M93 39L93 40L97 40L93 39z"/>
<path style="fill:#cbbc9a; stroke:none;" d="M104 39L104 40L116 40L104 39z"/>
<path style="fill:#cebe9a; stroke:none;" d="M125 39L125 40L132 40L125 39z"/>
<path style="fill:#cbbc9b; stroke:none;" d="M134 39L134 40L139 40L134 39z"/>
<path style="fill:#c0b399; stroke:none;" d="M152 39L152 40L163 42C164.7 37.4907 154.789 39 152 39z"/>
<path style="fill:#b7ad98; stroke:none;" d="M166 39L166 40L177 40L166 39z"/>
<path style="fill:#d87779; stroke:none;" d="M187 39L187 58L194 58L194 57L188 57L188 40L194 40L187 39z"/>
<path style="fill:#e29b9d; stroke:none;" d="M197 39L197 40L202 40L197 39z"/>
<path style="fill:#dc7b7e; stroke:none;" d="M217 39L217 40L223 40L223 46L224 46L224 39L217 39z"/>
<path style="fill:#d99698; stroke:none;" d="M228 39L228 40L235 40L228 39z"/>
<path style="fill:#382d17; stroke:none;" d="M3 40L5 49L3 40z"/>
<path style="fill:#816836; stroke:none;" d="M75 55L64 52C65.8759 58.1796 80.7037 60.0017 80.7037 52.0394C80.7037 47.0497 69.5894 48.4739 71.331 44.4028C72.1624 42.4594 79.1105 44.9391 81 45C79.0844 38.9354 64.2963 37.083 64.2963 44.9853C64.2963 50.7267 73.8842 48.0035 75 55z"/>
<path style="fill:#d1ccc0; stroke:none;" d="M83 40L83 62L84 62L83 40z"/>
<path style="fill:#8f7338; stroke:none;" d="M84 40L84 62L91 62L91 57C98.0577 56.9166 107.64 48.3084 99.6821 41.6034C96.0608 38.5521 88.4306 40 84 40z"/>
<path style="fill:#ac883b; stroke:none;" d="M104 40L104 42L115 42L115 44C109.198 44.0205 97.9367 50.1372 107.228 55.821C111.094 58.1854 117.643 57 122 57C122 41.8774 118.858 40 104 40z"/>
<path style="fill:#d8cbae; stroke:none;" d="M124 40L124 58L125 58L124 40z"/>
<path style="fill:#b58f3c; stroke:none;" d="M125 40L125 57L131 57C131 51.2763 129.377 44.0107 136 42L136 48L143 48C142.662 37.6203 132.909 40 125 40z"/>
<path style="fill:#776135; stroke:none;" d="M166 40L166 42L177 45C170.783 43.1803 160.728 48.243 167.742 55.2577C170.965 58.4807 178.832 57 183 57C183 42.4177 180.582 40 166 40z"/>
<path style="fill:#e03337; stroke:none;" d="M188 40L188 57L194 57C194 54.8397 192.775 42.7343 196.83 43.6312C200.425 44.426 199 54.3367 199 57L205 57C205 41.2934 203.418 40.1946 188 40z"/>
<path style="fill:#d83337; stroke:none;" d="M217 40C217.125 43.8776 217.502 46.0718 221 48L221 49C217.502 50.9282 217.125 53.1224 217 57L223 57C223.531 50.0498 228.469 50.0498 229 57L235 57C234.875 53.1224 234.498 50.9282 231 49L231 48C234.498 46.0718 234.875 43.8776 235 40L229 40C228.469 46.9502 223.531 46.9502 223 40L217 40z"/>
<path style="fill:#d46266; stroke:none;" d="M228 40L228 46L229 46L228 40z"/>
<path style="fill:#c5c6c7; stroke:none;" d="M43 42L39 65L40 65L43 42z"/>
<path style="fill:#e6e7e8; stroke:none;" d="M91 42L91 55L95 55L95 42L91 42z"/>
<path style="fill:#e58789; stroke:none;" d="M205 42L205 57L199 57L199 43L198 43L198 58L206 58L205 42z"/>
<path style="fill:#c3ab74; stroke:none;" d="M131 43L131 57L125 57L125 58L132 58L131 43z"/>
<path style="fill:#e4c2c4; stroke:none;" d="M194 43L194 58L195 58L194 43z"/>
<path style="fill:#e58689; stroke:none;" d="M207 43L207 58L215 58L215 43L214 43L214 57L208 57L207 43z"/>
<path style="fill:#e33337; stroke:none;" d="M208 43L208 57L214 57L214 43L208 43z"/>
<path style="fill:#080809; stroke:none;" d="M4 49L4 51C10.1538 50.983 18.8399 50.8601 21 44L4 49z"/>
<path style="fill:#4f3e1b; stroke:none;" d="M21 44L21 50L22 50L21 44z"/>
<path style="fill:#9c8f76; stroke:none;" d="M63 44L63 47L64 47L63 44z"/>
<path style="fill:#b4a78c; stroke:none;" d="M81 44L75 45L75 46L81 44z"/>
<path style="fill:#998c70; stroke:none;" d="M183 44L183 57L171 57L171 58L184 58L183 44z"/>
<path style="fill:#c3aa73; stroke:none;" d="M122 45L122 57L110 57L110 58L123 58L122 45z"/>
<path style="fill:#e6e7e8; stroke:none;" d="M111 55L115 55L115 46C110.613 47.4559 111.015 50.8496 111 55z"/>
<path style="fill:#e6e8e9; stroke:none;" d="M173 46L173 55L177 55C176.985 50.8496 177.387 47.4559 173 46z"/>
<path style="fill:#a0906e; stroke:none;" d="M71 47L71 48L78 48L71 47z"/>
<path style="fill:#d7ccb3; stroke:none;" d="M115 47L115 55L116 55L115 47z"/>
<path style="fill:#a99b7f; stroke:none;" d="M172 47L172 54L173 54L172 47z"/>
<path style="fill:#c9b893; stroke:none;" d="M136 48L136 49L143 49L136 48z"/>
<path style="fill:#b9ac8f; stroke:none;" d="M157 48L157 49L163 51C164.356 47.402 159.535 48.0104 157 48z"/>
<path style="fill:#c1b7a4; stroke:none;" d="M165 48L165 53L166 53L165 48z"/>
<path style="fill:#9e9072; stroke:none;" d="M67 49L67 50L74 50L67 49z"/>
<path style="fill:#c0b398; stroke:none;" d="M156 49L156 54L157 54L156 49z"/>
<path style="fill:#413415; stroke:none;" d="M20.3333 50.6667L20.6667 51.3333L20.3333 50.6667z"/>
<path style="fill:#a3906a; stroke:none;" d="M81 50L81 54L82 54L81 50z"/>
<path style="fill:#c0b9ab; stroke:none;" d="M63 54L64 54L70 52C67.1205 50.3409 63.7718 50.3984 63 54z"/>
<path style="fill:#dc6e72; stroke:none;" d="M223 51L223 57L217 57L217 58L224 58L223 51z"/>
<path style="fill:#d16e72; stroke:none;" d="M228 51L228 58L235 58L235 57L229 57L228 51z"/>
<path style="fill:#493918; stroke:none;" d="M18.6667 52.3333L19.3333 52.6667L18.6667 52.3333z"/>
<path style="fill:#b8af9c; stroke:none;" d="M70.3333 52.6667L70.6667 53.3333L70.3333 52.6667z"/>
<path style="fill:#de9597; stroke:none;" d="M51 53L52 62L53 62L51 53z"/>
<path style="fill:#1d170a; stroke:none;" d="M11 54L11 55L14 55L11 54z"/>
<path style="fill:#000000; stroke:none;" d="M7 55L8 56L7 55z"/>
<path style="fill:#846a37; stroke:none;" d="M8 55L4 79C11.4363 78.9376 18.2577 77.0426 23 71C16.248 67.2952 10.8158 63.5901 12 55L8 55z"/>
<path style="fill:#c1a973; stroke:none;" d="M112 55L112 56L116 56L112 55z"/>
<path style="fill:#1f190b; stroke:none;" d="M8 57L8 67L9 67L8 57z"/>
<path style="fill:#a19275; stroke:none;" d="M68 57L68 58L76 58L68 57z"/>
<path style="fill:#b09c72; stroke:none;" d="M91 57L91 58L96 58L91 57z"/>
<path style="fill:#b09d73; stroke:none;" d="M151 57L151 58L157 58L151 57z"/>
<path style="fill:#d48f91; stroke:none;" d="M53.3333 65.6667L53.6667 66.3333L53.3333 65.6667z"/>
<path style="fill:#c2787b; stroke:none;" d="M59.3333 65.6667L59.6667 66.3333L59.3333 65.6667z"/>
<path style="fill:#5d5e5e; stroke:none;" d="M42 69L54 68C50.4786 66.5223 44.6605 65.9553 42 69M60 67L60 68L240 68L222 67L186 67L60 67z"/>
<path style="fill:#251d0f; stroke:none;" d="M7 68L7 71L8 71L7 68z"/>
<path style="fill:#070607; stroke:none;" d="M3 78C9.03817 88.2999 25.7208 74.1138 31 69C20.9124 67.3666 14.8372 80.7189 3 78z"/>
<path style="fill:#100000; stroke:none;" d="M53 68L54 69L53 68z"/>
<path style="fill:#0b0a0a; stroke:none;" d="M60 68L65 81L58 79C60.1915 83.442 63.1604 84.735 68 85L62 68L60 68z"/>
<path style="fill:#ffffff; stroke:none;" d="M62 68L68 85L240 85L240 68L62 68z"/>
<path style="fill:#000000; stroke:none;" d="M31 70L31 72L33 72L31 70z"/>
<path style="fill:#050405; stroke:none;" d="M47 71C47 76.8041 36.1009 72.6528 33 72C37.4457 77.0378 43.8776 76.4576 50 75L47 71z"/>
<path style="fill:#0a0202; stroke:none;" d="M54.3333 71.6667L54.6667 72.3333L54.3333 71.6667z"/>
<path style="fill:#2f2715; stroke:none;" d="M5.33333 74.6667L5.66667 75.3333L5.33333 74.6667z"/>
<path style="fill:#020000; stroke:none;" d="M56.3333 76.6667L56.6667 77.3333L56.3333 76.6667z"/>
<path style="fill:#000000; stroke:none;" d="M21 81L21 82L26 82L21 81z"/>
</svg>
