<?xml version="1.0" encoding="utf-8"?>
<!-- Generator: Adobe Illustrator 24.3.0, SVG Export Plug-In . SVG Version: 6.00 Build 0)  -->
<svg version="1.1" id="Camada_1" xmlns="http://www.w3.org/2000/svg" xmlns:xlink="http://www.w3.org/1999/xlink" x="0px" y="0px"
	 viewBox="0 0 1000 330" style="enable-background:new 0 0 1000 330;" xml:space="preserve">
<style type="text/css">
	.st0{fill:url(#SVGID_1_);}
	.st1{fill:url(#SVGID_2_);}
	.st2{display:none;fill:url(#SVGID_3_);}
	.st3{fill:url(#SVGID_4_);}
	.st4{fill:url(#SVGID_5_);}
	.st5{fill:url(#SVGID_6_);}
	.st6{fill:url(#SVGID_7_);}
	.st7{fill:url(#SVGID_8_);}
	.st8{fill:url(#SVGID_9_);}
</style>
<g>
	<linearGradient id="SVGID_1_" gradientUnits="userSpaceOnUse" x1="226.8078" y1="91.976" x2="226.8078" y2="238.024">
		<stop  offset="0" style="stop-color:#F2E205"/>
		<stop  offset="1" style="stop-color:#F2B705"/>
	</linearGradient>
	<path class="st0" d="M285.4,238H168.2c-40.2,0-73-32.9-73-73v0c0-40.2,32.9-73,73-73h117.3c40.2,0,73,32.9,73,73v0
		C358.5,205.2,325.6,238,285.4,238z"/>
	<linearGradient id="SVGID_2_" gradientUnits="userSpaceOnUse" x1="298.0892" y1="111.6568" x2="298.0892" y2="218.3432">
		<stop  offset="0" style="stop-color:#0388A6"/>
		<stop  offset="1" style="stop-color:#084C61"/>
	</linearGradient>
	<path class="st1" d="M339.7,165c0,29.5-23.9,53.3-53.3,53.3s-29.8-23.9-29.8-53.3s0.4-53.3,29.8-53.3S339.7,135.5,339.7,165z"/>
	<g>
		<linearGradient id="SVGID_3_" gradientUnits="userSpaceOnUse" x1="314.081" y1="111.3979" x2="314.081" y2="218.0856">
			<stop  offset="2.406444e-03" style="stop-color:#F2F2F2"/>
			<stop  offset="1" style="stop-color:#C9E7F2"/>
		</linearGradient>
		<path class="st2" d="M268.3,115.6c0-2.3,1.9-4.2,4.2-4.2H309c16.1,0,28.6,4.6,37.5,13.8c8.9,9.2,13.4,22.3,13.4,39.1
			c0,16.9-4.5,30.1-13.4,39.6c-8.9,9.5-21.4,14.2-37.4,14.2h-36.5c-2.3,0-4.2-1.9-4.2-4.2V115.6z M290.6,134v61.4
			c0,2.3,1.9,4.2,4.2,4.2h11.5c10,0,17.6-3,22.9-9c5.2-6,7.9-14.7,7.9-26.2c0-11.1-2.7-19.7-8-25.7c-5.3-6-12.9-8.9-22.8-8.9h-11.5
			C292.5,129.8,290.6,131.7,290.6,134z"/>
		<linearGradient id="SVGID_4_" gradientUnits="userSpaceOnUse" x1="407.5676" y1="111.3979" x2="407.5676" y2="218.0856">
			<stop  offset="2.406444e-03" style="stop-color:#F2F2F2"/>
			<stop  offset="1" style="stop-color:#C9E7F2"/>
		</linearGradient>
		<path class="st3" d="M442.9,203.8v10.1c0,2.3-1.9,4.2-4.2,4.2h-62.3c-2.3,0-4.2-1.9-4.2-4.2v-98.3c0-2.3,1.9-4.2,4.2-4.2h62.3
			c2.3,0,4.2,1.9,4.2,4.2v10c0,2.3-1.9,4.2-4.2,4.2h-39.9c-2.3,0-4.2,1.9-4.2,4.2v17.3c0,2.3,1.9,4.2,4.2,4.2H436
			c2.3,0,4.2,1.9,4.2,4.2v8.7c0,2.3-1.9,4.2-4.2,4.2h-37.2c-2.3,0-4.2,1.9-4.2,4.2v18.5c0,2.3,1.9,4.2,4.2,4.2h39.9
			C441,199.6,442.9,201.5,442.9,203.8z"/>
		<linearGradient id="SVGID_5_" gradientUnits="userSpaceOnUse" x1="498.2068" y1="109.5496" x2="498.2068" y2="219.934">
			<stop  offset="2.406444e-03" style="stop-color:#F2F2F2"/>
			<stop  offset="1" style="stop-color:#C9E7F2"/>
		</linearGradient>
		<path class="st4" d="M459.7,187.7h13.4c1.8,0,3.5,1.1,4,2.8c1,3.1,3.1,5.7,6.3,7.8c4.1,2.7,9.2,4,15.1,4c5.9,0,10.7-1.3,14.5-3.8
			c3.7-2.5,5.6-5.8,5.6-9.7c0-3.4-1.4-6.2-4.1-8.4c-2.8-2.1-7.4-3.9-13.8-5.3l-13.9-3c-19.6-4.2-29.4-14.1-29.4-29.8
			c0-9.8,3.8-17.6,11.4-23.7c7.6-6,17.4-9,29.4-9c12.3,0,22.2,2.9,29.5,8.8c6.1,4.8,9.7,11,10.9,18.4c0.4,2.6-1.6,4.9-4.2,4.9h-12.8
			c-1.8,0-3.5-1.2-4-2.9c-0.8-3.1-2.7-5.7-5.5-7.7c-3.6-2.6-8.2-3.9-13.9-3.9c-5.5,0-10,1.2-13.3,3.6c-3.4,2.4-5.1,5.6-5.1,9.5
			c0,3.3,1.4,5.9,4.1,7.9c2.7,2,7.2,3.7,13.3,5.2l12.9,2.7c10.7,2.3,18.5,5.8,23.4,10.6c4.9,4.8,7.3,11.3,7.3,19.4
			c0,10.4-3.9,18.6-11.7,24.7c-7.8,6.1-18.3,9.1-31.6,9.1c-12.9,0-23.1-2.9-30.7-8.6c-6.3-4.8-10.1-11-11.4-18.7
			C455.1,190.1,457.1,187.7,459.7,187.7z"/>
		<linearGradient id="SVGID_6_" gradientUnits="userSpaceOnUse" x1="565.7877" y1="111.3979" x2="565.7877" y2="218.0856">
			<stop  offset="2.406444e-03" style="stop-color:#F2F2F2"/>
			<stop  offset="1" style="stop-color:#C9E7F2"/>
		</linearGradient>
		<path class="st5" d="M572.7,218.1h-13.9c-2.3,0-4.2-1.9-4.2-4.2v-98.3c0-2.3,1.9-4.2,4.2-4.2h13.9c2.3,0,4.2,1.9,4.2,4.2v98.3
			C577,216.2,575.1,218.1,572.7,218.1z"/>
		<linearGradient id="SVGID_7_" gradientUnits="userSpaceOnUse" x1="640.7205" y1="109.5496" x2="640.7205" y2="219.934">
			<stop  offset="2.406444e-03" style="stop-color:#F2F2F2"/>
			<stop  offset="1" style="stop-color:#C9E7F2"/>
		</linearGradient>
		<path class="st6" d="M690.1,173.3c0,14.5-4.2,26-12.5,34.2s-20,12.4-34.8,12.4c-16,0-28.5-4.9-37.7-14.8
			c-9.1-9.9-13.7-23.4-13.7-40.7c0-17.1,4.5-30.5,13.6-40.2s21.5-14.6,37.2-14.6c12.4,0,22.9,3.4,31.6,10.1
			c7.2,5.6,11.9,12.5,14.2,20.9c0.7,2.7-1.3,5.4-4.1,5.4l-14.2,0c-1.7,0-3.3-1.1-3.9-2.7c-1.7-4.3-4.4-7.8-8-10.4
			c-4.3-3.2-9.5-4.7-15.5-4.7c-8.8,0-15.7,3.2-20.7,9.5c-5,6.4-7.5,15.2-7.5,26.5c0,11.5,2.6,20.6,7.8,27.3c5.2,6.7,12.3,10,21.2,10
			c7.3,0,13.2-2,17.9-6.1c4.6-4.1,7-9.4,7.3-16l0.1-1.7h-19c-2.3,0-4.2-1.9-4.2-4.2v-7.9c0-2.3,1.9-4.2,4.2-4.2h36.5
			c2.3,0,4.2,1.9,4.2,4.2V173.3z"/>
		<linearGradient id="SVGID_8_" gradientUnits="userSpaceOnUse" x1="749.9959" y1="111.3979" x2="749.9959" y2="218.0856">
			<stop  offset="2.406444e-03" style="stop-color:#F2F2F2"/>
			<stop  offset="1" style="stop-color:#C9E7F2"/>
		</linearGradient>
		<path class="st7" d="M721.9,218.1h-13c-2.3,0-4.2-1.9-4.2-4.2v-98.3c0-2.3,1.9-4.2,4.2-4.2h12.3c1.4,0,2.6,0.7,3.4,1.8l48.6,67.7
			h0.6v-65.3c0-2.3,1.9-4.2,4.2-4.2h13c2.3,0,4.2,1.9,4.2,4.2v98.3c0,2.3-1.9,4.2-4.2,4.2h-12.1c-1.4,0-2.6-0.7-3.4-1.8l-48.6-68.1
			h-0.7v65.7C726.2,216.2,724.3,218.1,721.9,218.1z"/>
		<linearGradient id="SVGID_9_" gradientUnits="userSpaceOnUse" x1="856.349" y1="111.3979" x2="856.349" y2="218.0856">
			<stop  offset="2.406444e-03" style="stop-color:#F2F2F2"/>
			<stop  offset="1" style="stop-color:#C9E7F2"/>
		</linearGradient>
		<path class="st8" d="M881.9,215.1l-6.3-20c-0.6-1.8-2.2-2.9-4-2.9h-31.3c-1.8,0-3.5,1.2-4,2.9l-6.3,20c-0.6,1.8-2.2,2.9-4,2.9
			h-13.9c-2.9,0-4.9-2.9-4-5.6l34.1-98.3c0.6-1.7,2.2-2.8,4-2.8h20.3c1.8,0,3.4,1.1,4,2.8l34.2,98.3c1,2.7-1.1,5.6-4,5.6h-14.7
			C884.1,218.1,882.4,216.9,881.9,215.1z M855.7,131.8l-12,38.2c-0.8,2.7,1.2,5.5,4,5.5h16.4c2.8,0,4.9-2.8,4-5.5l-12-38.2H855.7z"
			/>
	</g>
</g>
</svg>
